<svg width="809" height="1519" xmlns="http://www.w3.org/2000/svg" xmlns:xlink="http://www.w3.org/1999/xlink" xml:space="preserve" overflow="hidden"><defs><clipPath id="clip0"><rect x="1789" y="560" width="809" height="1519"/></clipPath><clipPath id="clip1"><rect x="1788" y="559" width="811" height="1357"/></clipPath><clipPath id="clip2"><rect x="1788" y="559" width="811" height="1357"/></clipPath><clipPath id="clip3"><rect x="1788" y="559" width="811" height="1357"/></clipPath></defs><g clip-path="url(#clip0)" transform="translate(-1789 -560)"><g clip-path="url(#clip1)"><g clip-path="url(#clip2)"><g clip-path="url(#clip3)"></g></g></g><path d="M2304 1566.96C2277.5 1586.42 2246.34 1598.49 2213.69 1601.97 2181.03 1605.41 2148.04 1600.22 2118 1586.92L2148.33 1518.28C2166.31 1526.4 2186.12 1529.61 2205.73 1527.57L2201.78 1490.25C2188.72 1491.68 2175.5 1489.6 2163.5 1484.23L2178.67 1449.96C2190.88 1455.38 2205.04 1453.87 2215.84 1446L2237.91 1476.31C2246.5 1470.09 2253.67 1462.11 2258.97 1452.92L2291.47 1471.5C2289.94 1474.19 2288.31 1476.78 2286.57 1479.32 2279.42 1489.86 2270.51 1499.09 2260.24 1506.61Z" fill="#414042" fill-rule="evenodd"/><path d="M2372.77 1470.88C2370.58 1478.07 2367.96 1485.12 2364.91 1492L2330.63 1476.74 2296.39 1461.58C2304.35 1443.49 2307.45 1423.64 2305.41 1403.98L2279.67 1406.62 2268.12 1407.83C2269.5 1420.92 2267.43 1434.13 2262.11 1446.17L2227.88 1430.96C2230.53 1424.94 2231.55 1418.33 2230.83 1411.79 2230.78 1411.01 2230.67 1410.23 2230.51 1409.47 2230.29 1407.91 2229.94 1406.37 2229.46 1404.87L2229.09 1403.71C2228.51 1402.01 2227.8 1400.35 2226.98 1398.75 2226.86 1398.47 2226.72 1398.21 2226.56 1397.96 2225.87 1396.67 2225.12 1395.41 2224.29 1394.21L2223.87 1393.68 2223.13 1392.68 2211.1 1376.25 2193.49 1352.12 2185.58 1341.25 2161.37 1307.98 2041.9 1143.86C1980.96 1060 1999.47 942.565 2083.24 881.563 2103.79 866.602 2127.15 855.976 2151.92 850.328 2227.67 833.167 2290.86 871.766 2306.63 883.858 2319.92 895.395 2332.27 907.986 2343.55 921.508 2344.02 922.141 2344.45 922.828 2344.5 922.828L2344.5 922.828C2352.52 934.532 2357.44 948.087 2358.79 962.219 2359.43 981.146 2353.46 999.704 2341.91 1014.71 2337.87 1019.58 2333.25 1023.94 2328.15 1027.7 2321.27 1032.73 2313.58 1036.53 2305.41 1038.94 2274.97 1048.04 2242.1 1036.93 2223.39 1011.22 2209.95 995.448 2186.28 993.572 2170.52 1007.03 2156.4 1019.1 2153.22 1039.7 2163.05 1055.47L2193.38 1097.08 2193.38 1097.08 2345.03 1305.39C2379.78 1353.1 2390.06 1414.42 2372.77 1470.88" fill="#414042" fill-rule="evenodd"/><path d="M2153.12 1478.53 2132.77 1510.11C2121.09 1502.63 2110.91 1493.07 2102.74 1481.89 2101.31 1479.95 2099.94 1477.95 2098.67 1475.89L2035.24 1516C2009.13 1475.03 2000.03 1425.57 2009.86 1378.05 2012.58 1364.98 2016.68 1352.22 2022.07 1340L2090.8 1370.32C2082.79 1388.25 2079.64 1407.95 2081.65 1427.47L2119.02 1423.47C2118.2 1415.78 2118.58 1408.01 2120.13 1400.42 2121.22 1395.19 2122.87 1390.09 2125.05 1385.21L2159.36 1400.37C2158.29 1402.82 2157.47 1405.38 2156.93 1408 2156.15 1411.79 2155.96 1415.68 2156.34 1419.53 2157.02 1425.14 2158.96 1430.54 2162 1435.32L2130.28 1455.37C2131.13 1456.68 2132.03 1458.05 2133.03 1459.37 2138.47 1466.94 2145.28 1473.44 2153.12 1478.53" fill="#414042" fill-rule="evenodd"/><path d="M2459 983C2459 992.389 2451.61 1000 2442.5 1000 2433.39 1000 2426 992.389 2426 983 2426 973.611 2433.39 966 2442.5 966 2451.59 965.97 2458.97 973.533 2459 982.893 2459 982.928 2459 982.964 2459 983" fill="#414042" fill-rule="evenodd"/><path d="M2498 944.5C2498 956.374 2488.38 966 2476.5 966 2464.63 966 2455 956.374 2455 944.5 2455 932.626 2464.63 923 2476.5 923 2488.38 923 2498 932.626 2498 944.5" fill="#414042" fill-rule="evenodd"/><path d="M2481 846.5C2481 860.584 2469.36 872 2455 872 2440.64 872 2429 860.584 2429 846.5 2429 832.417 2440.64 821 2455 821 2455.02 821 2455.04 821 2455.05 821 2469.38 821 2481 832.393 2481 846.448 2481 846.466 2481 846.483 2481 846.5" fill="#414042" fill-rule="evenodd"/><path d="M1895.65 1842C1894.19 1842 1893 1840.81 1893 1839.35 1893 1774.53 1945.49 1721.99 2010.23 1722 2045.06 1722 2078.1 1737.51 2100.37 1764.33 2101.31 1765.42 2101.19 1767.06 2100.1 1768 2100.09 1768.01 2100.07 1768.03 2100.05 1768.04 2098.92 1768.98 2097.25 1768.83 2096.29 1767.73 2056.77 1720.14 1986.2 1713.64 1938.67 1753.2 1913.07 1774.51 1898.27 1806.13 1898.3 1839.45 1898.24 1840.88 1897.07 1842 1895.65 1842Z" fill="#414042" fill-rule="evenodd"/><path d="M2324.2 1759.99C2323.54 1760 2322.9 1759.76 2322.41 1759.31 2321.4 1758.31 2321.39 1756.66 2322.38 1755.64 2322.39 1755.63 2322.4 1755.61 2322.41 1755.6 2328.63 1748.68 2328.12 1737.97 2321.26 1731.7 2314.41 1725.41 2303.81 1725.94 2297.59 1732.86 2294.79 1735.97 2293.24 1740.03 2293.24 1744.23 2293.24 1745.69 2292.07 1746.88 2290.62 1746.88 2289.18 1746.85 2288.03 1745.68 2288 1744.23 2287.99 1731.96 2297.84 1722.01 2309.99 1722 2322.14 1721.99 2331.99 1731.93 2332 1744.2 2332 1749.73 2329.97 1755.06 2326.29 1759.15 2325.76 1759.74 2324.99 1760.05 2324.2 1759.99Z" fill="#414042" fill-rule="evenodd"/><path d="M2290.5 1836C2289.12 1836 2288 1834.82 2288 1833.36L2288 1744.64C2288 1743.18 2289.12 1742 2290.5 1742 2291.88 1742 2293 1743.18 2293 1744.64L2293 1833.36C2293 1834.82 2291.88 1836 2290.5 1836Z" fill="#414042" fill-rule="evenodd"/><path d="M2290.46 1835.94 2290.46 1835.94C2289.02 1835.85 2287.92 1834.6 2288 1833.15 2288 1833.15 2288.01 1833.15 2288.01 1833.14 2289.43 1804.65 2301.18 1777.68 2321.01 1757.35L2322.68 1755.77C2323.62 1754.78 2325.17 1754.74 2326.15 1755.68 2326.18 1755.72 2326.21 1755.74 2326.23 1755.77 2327.26 1756.86 2327.26 1758.57 2326.23 1759.67L2325.82 1760.04 2324.98 1760.93C2306.11 1780.37 2294.97 1806.12 2293.65 1833.3 2293.68 1834.76 2292.54 1835.96 2291.1 1836 2290.88 1836 2290.67 1835.98 2290.46 1835.94Z" fill="#414042" fill-rule="evenodd"/><path d="M2247 1912C2250.45 1912.49 2253.01 1915.48 2253 1919" stroke="#414042" stroke-width="5.82877" stroke-linecap="round" stroke-miterlimit="8" fill="none" fill-rule="evenodd"/><path d="M2009.71 1956C1945.31 1955.91 1893.12 1903.87 1893 1839.63 1893 1838.18 1894.18 1837 1895.64 1837 1897.09 1837.03 1898.25 1838.19 1898.28 1839.63 1898.4 1901.02 1948.4 1950.69 2009.94 1950.56 2039.11 1950.5 2067.1 1939.03 2087.89 1918.61L2090.21 1916.3C2091.05 1915.11 2092.7 1914.83 2093.89 1915.68 2095.08 1916.52 2095.36 1918.16 2094.51 1919.35 2094.37 1919.55 2094.2 1919.73 2094.01 1919.88 2093.22 1920.72 2092.43 1921.56 2091.58 1922.35 2069.82 1943.92 2040.38 1956.01 2009.71 1956Z" fill="#414042" fill-rule="evenodd"/><path d="M2098 1912C2096.4 1914.07 2094.75 1916.09 2093 1918" stroke="#414042" stroke-width="5.82877" stroke-linecap="round" stroke-miterlimit="8" fill="none" fill-rule="evenodd"/><path d="M2111.32 1915 2110.57 1915C2106.08 1913.72 2102.99 1909.57 2103 1904.86 2103 1903.41 2103.31 1901.96 2103.91 1900.64 2104.47 1899.28 2106.01 1898.64 2107.35 1899.2 2107.37 1899.21 2107.39 1899.22 2107.4 1899.23 2108.76 1899.82 2109.39 1901.41 2108.8 1902.79 2108.8 1902.79 2108.8 1902.8 2108.8 1902.8 2108.52 1903.45 2108.38 1904.15 2108.37 1904.86 2108.45 1907.11 2109.91 1909.08 2112.02 1909.8 2113.43 1910.16 2114.28 1911.61 2113.92 1913.03 2113.91 1913.05 2113.9 1913.08 2113.9 1913.1 2113.54 1914.24 2112.5 1915.01 2111.32 1915Z" fill="#414042" fill-rule="evenodd"/><path d="M2092.52 1921C2091.14 1920.97 2090.03 1919.76 2090 1918.26 2089.99 1917.42 2090.34 1916.62 2090.96 1916.12 2093.21 1913.97 2095.81 1912.3 2098.62 1911.19 2099.89 1910.64 2101.32 1911.32 2101.82 1912.71 2101.83 1912.73 2101.84 1912.75 2101.84 1912.78 2102.32 1914.19 2101.67 1915.75 2100.38 1916.29 2098.12 1917.2 2096.04 1918.55 2094.23 1920.29L2093.53 1920.94 2092.52 1920.94Z" fill="#414042" fill-rule="evenodd"/><path d="M2100.02 1915.96C2098.61 1916.21 2097.28 1915.22 2097.04 1913.74 2096.8 1912.26 2097.74 1910.86 2099.15 1910.61 2101.44 1909.69 2103.85 1909.15 2106.29 1909.01 2107.7 1908.91 2108.91 1910.04 2108.99 1911.51 2108.99 1911.51 2109 1911.51 2109 1911.52 2109.08 1913 2108.01 1914.26 2106.61 1914.36 2106.6 1914.36 2106.6 1914.36 2106.6 1914.36 2104.66 1914.47 2102.76 1914.88 2100.94 1915.59Z" fill="#414042" fill-rule="evenodd"/><path d="M2109 1912 2107 1912" stroke="#414042" stroke-width="5.82877" stroke-linecap="round" stroke-miterlimit="8" fill="none" fill-rule="evenodd"/><path d="M2097.66 1915C2097.04 1915.01 2096.44 1914.78 2095.97 1914.37 2094.87 1913.5 2094.68 1911.91 2095.54 1910.8 2095.58 1910.76 2095.61 1910.71 2095.66 1910.67L2251.3 1724.93C2252.26 1723.83 2253.92 1723.68 2255.05 1724.61 2256.16 1725.52 2256.32 1727.15 2255.42 1728.26 2255.4 1728.28 2255.38 1728.3 2255.37 1728.31L2099.67 1914.05C2099.17 1914.65 2098.44 1915 2097.66 1915Z" fill="#414042" fill-rule="evenodd"/><path d="M2106.32 1915 2106 1912.17 2106 1909.34 2114.94 1909.34 2253.35 1909 2253.35 1909C2254.78 1909.03 2255.94 1910.24 2256 1911.77 2255.97 1913.34 2254.81 1914.6 2253.35 1914.66Z" fill="#414042" fill-rule="evenodd"/><path d="M2253.5 1956C2252.12 1956 2251 1954.81 2251 1953.33L2251 1911.67C2251 1910.19 2252.12 1909 2253.5 1909 2254.88 1909 2256 1910.19 2256 1911.67L2256 1953.33C2256 1954.81 2254.88 1956 2253.5 1956Z" fill="#414042" fill-rule="evenodd"/><path d="M2403.5 1878.94 2401.31 1878.94C2399.93 1878.81 2398.9 1877.38 2399.01 1875.72 2399.01 1875.71 2399.01 1875.71 2399.01 1875.7 2399.19 1874.1 2400.36 1872.93 2401.71 1873 2402.97 1873.12 2404.24 1873.12 2405.5 1873 2406.88 1873 2408 1874.35 2408 1876 2408 1877.66 2406.88 1879 2405.5 1879Z" fill="#414042" fill-rule="evenodd"/><path d="M2401.39 1877.99 2401.39 1877.99C2379.3 1876.83 2362 1858.86 2362 1837.08L2362 1836.3C2362.4 1813.65 2381.38 1795.61 2404.4 1796.01 2425.01 1796.36 2442.26 1811.49 2444.98 1831.59 2445.14 1833.01 2444.13 1834.31 2442.7 1834.52 2441.31 1834.76 2439.99 1833.84 2439.75 1832.47 2439.74 1832.41 2439.73 1832.34 2439.72 1832.27 2437.08 1812.68 2418.8 1798.9 2398.89 1801.5 2381 1803.84 2367.55 1818.74 2367.32 1836.51L2364.66 1837.08 2367.32 1837.08C2367.32 1856.06 2382.4 1871.73 2401.66 1872.76 2403.12 1872.85 2404.24 1874.09 2404.16 1875.52 2404.16 1875.53 2404.16 1875.53 2404.16 1875.53 2404.1 1876.95 2402.89 1878.05 2401.45 1878 2401.43 1877.99 2401.41 1877.99 2401.39 1877.99Z" fill="#414042" fill-rule="evenodd"/><path d="M2401.5 1878 2401.5 1878C2400.12 1878 2399 1877.02 2399 1875.8 2399.28 1874.59 2400.62 1873.8 2402 1874.04 2403.01 1874.22 2403.8 1874.91 2404 1875.8 2404 1877.02 2402.88 1878 2401.5 1878Z" fill="#414042" fill-rule="evenodd"/><path d="M2403.61 1956C2380.96 1955.89 2362.52 1937.84 2362 1915.27 2361.97 1913.81 2363.14 1912.6 2364.6 1912.57 2364.6 1912.57 2364.6 1912.57 2364.6 1912.57 2366.04 1912.61 2367.21 1913.74 2367.31 1915.16 2367.5 1935.14 2383.89 1951.19 2403.94 1951.01 2422.16 1950.84 2437.44 1937.22 2439.63 1919.19 2439.85 1917.63 2439.95 1916.05 2439.95 1914.47 2439.95 1895.25 2424.89 1879.37 2405.63 1878.3 2404.16 1878.3 2402.97 1877.11 2402.97 1875.65 2402.97 1874.19 2404.16 1873 2405.63 1873 2427.71 1874.21 2445.01 1892.42 2445 1914.47 2445.01 1916.25 2444.88 1918.02 2444.63 1919.77 2441.97 1940.37 2424.45 1955.85 2403.61 1956Z" fill="#414042" fill-rule="evenodd"/><path d="M2405.82 1935C2389.57 1935.06 2374 1928.68 2362.76 1917.34L2362.28 1916.73C2361.63 1915.46 2362.15 1913.93 2363.45 1913.29 2364.55 1912.74 2365.89 1912.99 2366.7 1913.9 2376.93 1924.16 2391.07 1929.93 2405.82 1929.87 2418.53 1929.86 2430.85 1925.58 2440.64 1917.75 2441.77 1916.84 2443.44 1916.99 2444.38 1918.09 2445.33 1919.18 2445.17 1920.8 2444.04 1921.71 2433.29 1930.3 2419.77 1935 2405.82 1935Z" fill="#414042" fill-rule="evenodd"/><path d="M2364.59 1839C2363.92 1838.99 2363.27 1838.73 2362.79 1838.25 2361.74 1837.22 2361.74 1835.53 2362.77 1834.49 2362.78 1834.48 2362.78 1834.48 2362.79 1834.47 2384.45 1811.82 2419.87 1809.74 2444.04 1829.68 2445.16 1830.61 2445.33 1832.27 2444.41 1833.41 2443.49 1834.55 2441.81 1834.73 2440.67 1833.81 2440.66 1833.8 2440.65 1833.79 2440.63 1833.78 2418.61 1815.6 2386.32 1817.53 2366.61 1838.2 2366.08 1838.74 2365.35 1839.03 2364.59 1839Z" fill="#414042" fill-rule="evenodd"/><path d="M1890.84 2045.46C1894.55 2047 1898.08 2048.95 1901.37 2051.27L1899.53 2055.37C1896.31 2052.87 1892.76 2050.83 1889 2049.3ZM1927 2050.79C1923.09 2056.8 1918.31 2062.18 1912.84 2066.77 1907.43 2071.47 1901.1 2074.95 1894.26 2077L1891.63 2072.95C1897.87 2071.36 1903.7 2068.43 1908.74 2064.38 1914.87 2059.73 1920.06 2053.95 1924.05 2047.33ZM1896.53 2033C1900.24 2034.53 1903.77 2036.48 1907.05 2038.81L1905.11 2042.59C1901.9 2040.06 1898.36 2038.02 1894.58 2036.52Z" fill="#414042" fill-rule="evenodd"/><path d="M1994 2058 1994 2055 2033 2055 2033 2058Z" fill="#414042" fill-rule="evenodd"/><path d="M2104 2042.83 2104 2039.1 2133.67 2039.1C2134.5 2038.89 2135.27 2038.51 2135.95 2038L2140 2041.46C2138.6 2042.99 2138.44 2043.14 2138.18 2044.04 2134.09 2058.15 2130.77 2063.51 2123.71 2069.23 2120.11 2072.02 2116.15 2074.29 2111.94 2076L2108.25 2072.27C2114.2 2070.58 2119.65 2067.44 2124.13 2063.14 2129.5 2057.66 2132.9 2050.5 2133.78 2042.83Z" fill="#414042" fill-rule="evenodd"/><path d="M2229.52 2057.95C2225.6 2064.14 2220.18 2069.2 2213.78 2072.62L2211 2069.79C2218.15 2067.03 2224.14 2061.82 2227.94 2055.05L2211.42 2055.05 2211.42 2051.95 2229.52 2051.95 2229.52 2043 2232.25 2043.43C2233.14 2043.43 2233.71 2043.43 2233.71 2044.02 2233.71 2044.61 2233.71 2044.34 2232.82 2044.87L2232.82 2051.95 2243 2051.95 2243 2055.05 2232.82 2055.05 2232.82 2074.93C2232.82 2078.57 2229.78 2078.95 2224.74 2079L2223.91 2075.2 2226.32 2075.2C2226.9 2075.2 2229.05 2075.2 2229.36 2074.66 2229.68 2074.12 2229.36 2074.23 2229.36 2073.11Z" fill="#414042" fill-rule="evenodd"/><path d="M2316 2058 2316 2055 2355 2055 2355 2058Z" fill="#414042" fill-rule="evenodd"/><path d="M2458.03 2040.59C2456.83 2041.21 2455.77 2042.06 2454.9 2043.08 2452.88 2047.6 2450.36 2051.88 2447.38 2055.86 2452.95 2060.22 2457.87 2065.33 2462 2071.04L2458.29 2074C2456.43 2070.71 2454.11 2067.68 2451.4 2065.01 2449.41 2062.88 2447.23 2060.94 2444.89 2059.19 2439.54 2065.22 2432.8 2069.93 2425.23 2072.91L2422 2069.38C2428.56 2067.4 2434.5 2063.83 2439.27 2058.98 2444.36 2054.21 2448.24 2048.33 2450.61 2041.83L2428.2 2041.83 2428.2 2038.14 2452.15 2038.14C2453.08 2038.02 2453.95 2037.62 2454.64 2037Z" fill="#414042" fill-rule="evenodd"/><path d="M2487 2076 2487 2070 2493 2070 2493 2076Z" fill="#414042" fill-rule="evenodd"/><path d="M1999.55 641.851C1997.93 641.851 1995.99 642.097 1993.76 642.589 1991.51 643.081 1989.57 643.942 1987.95 645.17 1986.32 646.4 1985.5 648.122 1985.5 650.335L1987.89 653.838 1993.2 655.682C1995.16 656.051 1996.66 656.235 1997.72 656.235 1999.75 656.235 2001.86 655.703 2004.02 654.637 2006.18 653.572 2008 652.158 2009.52 650.395 2011.02 648.634 2011.78 646.687 2011.78 644.556L2011.78 643.081 2005.79 642.036C2003.34 641.914 2001.27 641.851 1999.55 641.851ZM2238.7 614.189 2238.7 614.189 2238.7 614.189C2239.03 614.189 2239.19 614.354 2239.19 614.682 2239.19 614.764 2239.17 614.825 2239.13 614.866 2239.09 614.907 2239.07 614.969 2239.07 615.051 2238.42 617.264 2237.98 619.6 2237.73 622.058 2237.48 624.517 2237.36 626.935 2237.36 629.312L2239.68 638.348 2245.79 643.818C2248.31 645.129 2251.09 646.032 2254.1 646.523 2257.12 647.015 2260.12 647.261 2263.14 647.261 2266.81 647.261 2270.48 646.953 2274.14 646.339 2277.81 645.724 2281.39 645.007 2284.9 644.187 2285.22 644.022 2285.5 643.941 2285.75 643.941 2285.99 643.941 2286.28 643.941 2286.6 643.941 2288.81 643.941 2291.07 644.392 2293.39 645.294 2295.71 646.195 2297.67 647.507 2299.26 649.227L2299.26 649.228 2299.26 649.228C2300.84 650.95 2301.64 653.08 2301.64 655.621 2301.64 657.67 2300.7 659.453 2298.82 660.969 2296.95 662.486 2295.07 663.449 2293.2 663.858 2290.84 664.349 2288.42 664.678 2285.94 664.841 2283.45 665.006 2280.98 665.088 2278.54 665.088 2274.23 665.088 2269.86 664.986 2265.47 664.78 2261.07 664.576 2256.75 664.062 2252.51 663.244 2247.7 662.26 2243.47 660.784 2239.8 658.818 2236.14 656.85 2233.29 654.125 2231.25 650.642L2231.25 650.642 2231.25 650.642C2229.22 647.159 2228.19 642.753 2228.19 637.426 2228.19 633.328 2229.13 629.27 2231.01 625.253 2232.88 621.239 2235.2 617.796 2237.96 614.927 2238.21 614.517 2238.45 614.272 2238.7 614.189ZM2115.76 595.994 2116.38 596.485 2116.38 596.485 2116.38 596.486C2115.81 597.552 2115.39 598.863 2115.1 600.42 2114.81 601.978 2114.67 603.371 2114.67 604.601 2114.67 605.01 2114.83 605.686 2115.15 606.629L2116.5 608.043 2119.74 607.489C2120.76 607.12 2121.8 606.69 2122.85 606.198 2125.55 604.887 2128.4 603.535 2131.41 602.141 2134.42 600.748 2137.5 599.56 2140.64 598.576 2143.77 597.592 2146.85 597.1 2149.86 597.1 2155.15 597.1 2159.57 598.33 2163.12 600.788L2163.12 600.79 2163.12 600.79C2166.66 603.248 2169.33 606.547 2171.13 610.686 2172.92 614.825 2173.81 619.354 2173.81 624.272 2173.81 629.762 2172.73 635.111 2170.57 640.314 2168.42 645.52 2165.34 650.007 2161.35 653.776 2154.67 660.006 2147.35 664.411 2139.42 666.993 2131.47 669.575 2123.02 671.317 2114.06 672.219 2113.48 672.3 2112.86 672.362 2112.16 672.402 2111.47 672.443 2110.8 672.464 2110.14 672.464 2109.99 672.464 2109.5 672.443 2108.69 672.402 2107.86 672.362 2107.46 672.135 2107.46 671.727L2107.46 671.726 2107.46 671.726C2107.46 671.152 2107.66 670.784 2108.07 670.619 2108.47 670.456 2108.89 670.292 2109.29 670.127 2111.98 669.308 2114.63 668.406 2117.23 667.423 2119.84 666.439 2122.41 665.374 2124.94 664.226 2130.96 661.44 2136.32 657.772 2141 653.223 2145.68 648.674 2149.38 643.409 2152.06 637.426 2154.75 631.442 2156.09 625.049 2156.09 618.247 2156.09 616.771 2155.96 614.969 2155.67 612.837L2153.77 607.244 2149.38 604.846C2145.87 604.846 2142.51 605.953 2139.29 608.166 2136.08 610.379 2133.41 612.756 2131.29 615.297 2130.31 616.362 2129.41 617.468 2128.6 618.615 2127.79 619.763 2126.88 620.91 2125.92 622.058 2124.2 624.272 2122 625.377 2119.32 625.377 2114.83 625.377 2111.66 623.902 2109.78 620.952L2109.78 620.952 2109.78 620.951C2107.91 618 2106.97 614.517 2106.97 610.501 2106.97 607.796 2107.95 605.113 2109.9 602.448 2111.86 599.785 2113.82 597.633 2115.76 595.994ZM2235.77 571.406C2236.66 573.045 2238.28 574.438 2240.6 575.586 2242.92 576.733 2245.4 577.594 2248.05 578.168 2250.7 578.741 2252.88 579.028 2254.59 579.028 2256.87 579.028 2259.11 578.823 2261.31 578.414 2263.51 578.004 2265.71 577.43 2267.9 576.693 2268.81 576.365 2269.7 576.078 2270.6 575.832 2271.49 575.586 2272.43 575.463 2273.4 575.463 2274.72 575.463 2276.27 575.75 2278.11 576.323 2279.95 576.897 2281.74 577.696 2283.49 578.721 2285.24 579.746 2286.7 580.913 2287.89 582.224L2287.89 582.224 2287.89 582.224C2289.07 583.537 2289.66 584.971 2289.66 586.528 2289.66 589.069 2288.78 591.138 2287.04 592.737 2285.28 594.335 2283.19 595.133 2280.74 595.133L2277.56 595.133C2274.55 595.133 2271.38 595.626 2268.03 596.61 2264.69 597.593 2261.44 598.801 2258.25 600.236 2255.08 601.671 2252.19 603.166 2249.58 604.723 2248.52 605.215 2247.62 605.748 2246.89 606.321 2246.81 606.403 2246.65 606.547 2246.4 606.752 2246.16 606.956 2245.96 607.059 2245.79 607.059 2245.39 607.059 2245.18 606.936 2245.18 606.691L2245.18 606.69 2245.18 606.69C2245.18 606.526 2245.51 606.076 2246.16 605.338 2246.81 604.6 2247.18 604.149 2247.26 603.985 2247.99 603.083 2248.74 602.203 2249.52 601.342 2250.3 600.481 2251.09 599.641 2251.9 598.822 2252.96 597.838 2254.01 596.895 2255.08 595.994L2258.25 593.167 2257.22 593.228C2256.85 593.27 2256.46 593.29 2256.05 593.29 2255.48 593.29 2254.87 593.228 2254.22 593.105 2253.57 592.982 2252.92 592.88 2252.27 592.798 2249.25 592.142 2246.38 591.097 2243.65 589.663 2240.92 588.229 2238.74 586.118 2237.12 583.332L2237.12 583.332 2237.12 583.331C2235.57 580.708 2234.79 577.921 2234.79 574.971 2234.79 574.561 2234.84 573.906 2234.91 573.003 2234.99 572.103 2235.28 571.57 2235.77 571.406ZM2393.53 569.562C2395.4 569.562 2397.56 569.828 2400.01 570.36 2402.46 570.893 2404.59 571.836 2406.42 573.188L2406.42 573.188 2406.42 573.189C2408.26 574.541 2409.17 576.406 2409.17 578.782 2409.17 581.241 2408.72 582.963 2407.83 583.947 2406.93 584.93 2405.55 586.118 2403.67 587.512 2402.61 588.332 2401.51 589.13 2400.38 589.909 2399.23 590.687 2398.14 591.528 2397.07 592.429 2395.52 593.74 2394.02 595.155 2392.55 596.67 2391.08 598.187 2389.66 599.724 2388.28 601.281 2385.43 604.231 2382.58 607.223 2379.72 610.256L2371.17 619.352 2387.54 612.591C2393.16 609.969 2398.46 607.386 2403.43 604.846 2404.41 604.355 2405.33 603.78 2406.18 603.125 2407.03 602.47 2408.03 602.141 2409.17 602.141 2410.56 602.141 2412.37 602.264 2414.61 602.51 2416.85 602.756 2419.09 603.206 2421.33 603.863 2423.57 604.518 2425.46 605.481 2427.01 606.751L2427.01 606.752 2427.01 606.752C2428.56 608.022 2429.34 609.641 2429.34 611.609 2429.34 613.739 2428.4 615.439 2426.52 616.71 2424.65 617.98 2422.78 618.615 2420.9 618.615 2419.28 618.615 2417.65 618.492 2416.01 618.247 2414.39 618 2412.75 617.877 2411.13 617.877 2410.32 617.877 2409.52 617.899 2408.75 617.94 2407.97 617.98 2407.18 618 2406.36 618 2403.1 618 2400.05 618.8 2397.19 620.399 2394.34 621.997 2391.84 624.066 2389.68 626.607 2387.52 629.148 2385.75 631.852 2384.37 634.721 2383.71 636.033 2383.15 637.466 2382.66 639.024 2382.17 640.581 2381.92 642.097 2381.92 643.572L2383.51 650.273 2387.72 653.408C2389.48 653.982 2391.42 654.35 2393.53 654.515 2395.65 654.678 2397.8 654.924 2400.01 655.252 2402.05 655.498 2404.08 656.235 2406.12 657.465 2408.16 658.695 2409.87 660.231 2411.25 662.075L2411.25 662.075 2411.25 662.076C2412.63 663.919 2413.33 665.989 2413.33 668.284 2413.33 670.087 2412.72 671.624 2411.5 672.894 2410.27 674.165 2408.8 675.128 2407.1 675.784 2405.38 676.439 2403.76 676.767 2402.21 676.767 2400.18 676.767 2397.7 676.46 2394.81 675.845 2391.93 675.23 2389.11 674.39 2386.39 673.324 2383.66 672.259 2381.43 671.112 2379.72 669.882L2379.72 669.882 2379.72 669.882C2376.22 667.259 2373.82 664.37 2372.52 661.214 2371.22 658.058 2370.56 654.391 2370.56 650.212 2370.56 648.08 2371 645.642 2371.9 642.896 2372.8 640.151 2373.94 637.364 2375.32 634.536 2376.71 631.708 2378.19 629.045 2379.79 626.545L2384.13 620.46 2369.28 627.591C2364.43 630.131 2359.76 633.081 2355.29 636.442 2354.71 636.769 2354.16 637.098 2353.63 637.426 2353.11 637.754 2352.59 638.122 2352.1 638.532 2351.05 639.352 2350.15 639.967 2349.42 640.376 2348.69 640.786 2347.63 640.991 2346.24 640.991 2344.61 640.991 2343.39 640.131 2342.58 638.409L2342.58 638.409 2342.58 638.409C2341.76 636.688 2341.35 635.171 2341.35 633.86 2341.35 631.893 2341.7 629.905 2342.39 627.898 2343.08 625.889 2344.45 624.475 2346.48 623.655 2348.6 622.837 2350.62 622.058 2352.54 621.32 2354.45 620.582 2356.34 619.64 2358.22 618.492 2361.55 616.279 2364.92 613.472 2368.3 610.071 2371.68 606.67 2374.78 603.002 2377.58 599.068 2380.4 595.133 2382.66 591.364 2384.37 587.757 2384.62 587.184 2384.84 586.569 2385.04 585.912 2385.24 585.257 2385.34 584.643 2385.34 584.069 2385.34 583.987 2385.31 583.803 2385.22 583.516L2384.86 583.086 2381.92 584.376C2380.7 585.237 2379.46 586.262 2378.19 587.45 2376.94 588.639 2375.73 589.807 2374.59 590.954 2373.45 592.102 2372.55 592.962 2371.9 593.535 2371.25 594.109 2370.38 594.683 2369.28 595.257 2368.18 595.831 2367.17 596.118 2366.28 596.118 2363.27 596.118 2361.09 595.113 2359.74 593.105L2359.74 593.105 2359.74 593.105C2358.39 591.097 2357.72 588.699 2357.72 585.912 2357.72 584.601 2357.97 583.044 2358.46 581.241 2358.95 579.438 2359.68 577.819 2360.66 576.385 2361.63 574.95 2362.86 574.07 2364.33 573.742L2364.33 573.743 2364.33 573.742C2364.49 574.726 2364.65 575.833 2364.82 577.061L2365.97 580.258 2368.84 581.61C2370.97 581.61 2373.14 580.995 2375.39 579.766 2377.63 578.536 2379.84 577.143 2382.04 575.586 2384.25 574.028 2386.32 572.635 2388.28 571.406 2390.24 570.177 2391.98 569.562 2393.53 569.562ZM2013.37 567.718C2015.16 567.718 2017.17 568.271 2019.41 569.377 2021.65 570.484 2023.61 571.918 2025.28 573.68L2025.28 573.68 2025.28 573.681C2026.95 575.443 2027.78 577.308 2027.78 579.274 2027.78 580.258 2027.6 581.159 2027.24 581.979 2026.87 582.799 2026.48 583.659 2026.08 584.561 2025.1 586.528 2024.49 588.905 2024.24 591.692L2023.63 599.313 2024.85 599.313C2026.8 599.313 2028.62 598.904 2030.28 598.085 2031.95 597.265 2033.52 596.322 2034.99 595.257 2036.46 594.192 2037.91 593.249 2039.33 592.429 2040.76 591.609 2042.24 591.199 2043.8 591.199 2045.34 591.199 2047.09 591.63 2049.05 592.49 2051 593.35 2052.71 594.519 2054.18 595.994L2054.18 595.995 2054.18 595.995C2055.65 597.47 2056.37 599.109 2056.37 600.913 2056.37 602.633 2055.66 604.046 2054.24 605.154 2052.81 606.261 2051.04 607.079 2048.93 607.612 2046.8 608.144 2044.71 608.514 2042.63 608.719 2040.56 608.924 2038.9 609.026 2037.69 609.026 2034.91 609.026 2032.47 608.699 2030.35 608.043 2028.24 607.388 2025.96 606.403 2023.51 605.093 2023.58 609.928 2023.92 614.722 2024.49 619.477L2026.2 633.86 2033.52 636.134C2036.37 637.159 2039.36 638.409 2042.45 639.884 2045.54 641.359 2048.46 643.039 2051.19 644.924 2053.91 646.81 2056.12 648.879 2057.79 651.134L2057.79 651.134 2057.79 651.134C2059.46 653.388 2060.29 655.744 2060.29 658.203 2060.29 660.661 2059.43 662.629 2057.72 664.104 2056.01 665.579 2053.97 666.317 2051.61 666.317 2049.66 666.317 2047.7 665.702 2045.74 664.472 2043.8 663.244 2042.12 661.973 2040.74 660.661 2038.7 658.776 2036.64 656.871 2034.57 654.945 2032.49 653.018 2030.23 651.36 2027.78 649.965 2027.38 654.145 2026.01 657.547 2023.68 660.17 2021.37 662.793 2018.48 664.698 2015.01 665.887 2011.55 667.074 2007.9 667.669 2004.07 667.669 2001.39 667.669 1998.7 667.484 1996.02 667.116 1993.32 666.747 1990.84 665.702 1988.56 663.981 1988.23 663.736 1987.89 663.449 1987.52 663.121 1987.16 662.793 1986.77 662.506 1986.35 662.26 1984.97 661.031 1983.48 659.944 1981.9 659.001 1980.31 658.059 1978.99 656.911 1977.93 655.56L1977.93 655.56 1977.93 655.56C1976.87 654.207 1976.34 652.424 1976.34 650.212 1976.34 647.261 1977.32 644.679 1979.26 642.466 1981.22 640.253 1983.67 638.368 1986.6 636.811 1989.54 635.253 1992.55 634.065 1995.65 633.245 1998.74 632.425 2001.47 631.975 2003.83 631.893 2006.52 631.647 2009.17 631.525 2011.78 631.525L2011.78 626.238C2011.78 622.632 2011.75 619.025 2011.71 615.419 2011.68 611.812 2011.57 608.206 2011.41 604.6 2011.33 600.993 2011.24 597.305 2011.16 593.535 2011.09 589.765 2010.63 586.118 2009.82 582.594L2007.07 576.754 2000.9 574.48 2000.9 574.48 2000.9 574.48C2001.55 573.25 2002.62 572.123 2004.07 571.098 2005.54 570.074 2007.13 569.255 2008.84 568.64 2010.55 568.025 2012.06 567.718 2013.37 567.718ZM2125.06 564.767C2126.76 566.898 2128.82 568.394 2131.22 569.255 2133.63 570.115 2136.18 570.607 2138.86 570.73 2141.55 570.852 2144.11 570.915 2146.56 570.915 2148.6 570.915 2150.51 571.55 2152.31 572.82L2152.31 572.82 2152.31 572.82C2154.1 574.091 2155.57 575.668 2156.7 577.553 2157.85 579.439 2158.42 581.406 2158.42 583.454 2158.42 585.586 2157.65 587.286 2156.09 588.557 2154.54 589.827 2152.72 590.462 2150.59 590.462 2148.89 590.462 2147.17 590.216 2145.46 589.724 2144.08 589.315 2142.66 589.027 2141.19 588.864 2139.72 588.7 2138.25 588.619 2136.79 588.619 2134.34 588.619 2131.88 588.823 2129.39 589.232 2126.91 589.642 2124.57 590.42 2122.37 591.568L2122.37 591.568 2122.37 591.568 2121.75 590.83C2123.3 589.355 2124.94 587.982 2126.64 586.712L2131.78 583.086 2125.3 577.184 2125.3 577.184 2125.3 577.184C2123.76 575.135 2122.98 572.348 2122.98 568.824 2122.98 568.25 2123.2 567.513 2123.65 566.612 2124.1 565.71 2124.57 565.095 2125.06 564.767Z" fill="#414042" fill-rule="evenodd"/></g></svg>