<svg width="1613" height="431" xmlns="http://www.w3.org/2000/svg" xmlns:xlink="http://www.w3.org/1999/xlink" xml:space="preserve" overflow="hidden"><defs><clipPath id="clip0"><rect x="1445" y="1022" width="1613" height="431"/></clipPath></defs><g clip-path="url(#clip0)" transform="translate(-1445 -1022)"><g><g><g><g><path d="M2813.03 409.461C2798.47 420.315 2781.35 427.051 2763.42 428.988 2745.47 430.908 2727.35 428.016 2710.85 420.595L2727.51 382.305C2737.4 386.836 2748.28 388.623 2759.04 387.489L2756.87 366.665C2749.7 367.466 2742.44 366.307 2735.85 363.308L2744.17 344.193C2750.89 347.218 2758.67 346.376 2764.61 341.984L2776.72 358.889C2781.44 355.42 2785.38 350.974 2788.3 345.842L2806.15 356.21C2805.31 357.711 2804.42 359.156 2803.46 360.568 2799.52 366.451 2794.64 371.601 2788.99 375.797Z" fill="#FFFFFF" fill-rule="evenodd" transform="matrix(1 0 0 1.00334 -1205.38 1022)"/><path d="M2852.29 355.486C2851.08 359.409 2849.65 363.258 2847.96 367.007L2829.09 358.683 2810.23 350.415C2814.61 340.543 2816.32 329.712 2815.22 318.99L2801.04 320.429 2794.68 321.092C2795.43 328.23 2794.3 335.439 2791.36 342.005L2772.53 333.708C2773.99 330.428 2774.56 326.818 2774.16 323.252 2774.12 322.825 2774.06 322.401 2773.97 321.984 2773.85 321.136 2773.66 320.297 2773.39 319.478L2773.2 318.844C2772.87 317.914 2772.49 317.009 2772.03 316.137 2771.97 315.987 2771.89 315.843 2771.8 315.706 2771.43 315.001 2771.01 314.317 2770.55 313.66L2770.32 313.372 2769.91 312.824 2763.3 303.866 2753.6 290.701 2749.24 284.767 2735.92 266.621 2670.15 177.09C2636.59 131.341 2646.79 67.2756 2692.9 33.9974 2704.22 25.8357 2717.06 20.0384 2730.7 16.9576 2772.41 7.59607 2807.19 28.6531 2815.89 35.2496 2823.2 41.5432 2830 48.4116 2836.2 55.7878 2836.47 56.1342 2836.7 56.5083 2836.72 56.5083L2836.72 56.5083C2841.14 62.8934 2843.85 70.2882 2844.6 77.9972 2844.93 88.3231 2841.66 98.447 2835.3 106.631 2833.07 109.29 2830.52 111.67 2827.73 113.717 2823.93 116.463 2819.7 118.538 2815.22 119.853 2798.45 124.815 2780.35 118.755 2770.05 104.729 2762.65 96.1251 2749.62 95.1016 2740.94 102.443 2733.16 109.027 2731.43 120.265 2736.83 128.869L2753.54 151.568 2753.54 151.568 2837.01 265.209C2856.15 291.237 2861.8 324.687 2852.29 355.486" fill="#FFFFFF" fill-rule="evenodd" transform="matrix(1 0 0 1.00334 -1205.38 1022)"/><path d="M2731.02 360.737 2719.86 378.322C2713.46 374.16 2707.87 368.834 2703.41 362.612 2702.61 361.527 2701.86 360.414 2701.17 359.271L2666.39 381.604C2652.09 358.792 2647.1 331.249 2652.5 304.787 2653.99 297.508 2656.24 290.403 2659.18 283.597L2696.86 300.479C2692.46 310.463 2690.73 321.436 2691.83 332.306L2712.31 330.079C2711.87 325.794 2712.08 321.467 2712.94 317.242 2713.52 314.329 2714.44 311.489 2715.63 308.772L2734.44 317.213C2733.83 318.579 2733.39 320.003 2733.1 321.463 2732.66 323.573 2732.56 325.74 2732.77 327.882 2733.14 331.009 2734.21 334.012 2735.87 336.675L2718.48 347.842C2718.96 348.574 2719.44 349.335 2720 350.069 2722.99 354.285 2726.72 357.905 2731.02 360.737" fill="#FFFFFF" fill-rule="evenodd" transform="matrix(1 0 0 1.00334 -1205.38 1022)"/><path d="M2898.52 88.6246C2898.52 93.8071 2894.33 98.0087 2889.14 98.0087 2883.95 98.0087 2879.76 93.8071 2879.76 88.6246 2879.76 83.4423 2883.95 79.2407 2889.14 79.2407 2894.31 79.2244 2898.5 83.3989 2898.52 88.5652 2898.52 88.5843 2898.52 88.6046 2898.52 88.6246" fill="#FFFFFF" fill-rule="evenodd" transform="matrix(1 0 0 1.00334 -1205.38 1022)"/><path d="M2919.38 67.7719C2919.38 74.1059 2914.25 79.2413 2907.91 79.2413 2901.57 79.2413 2896.44 74.1059 2896.44 67.7719 2896.44 61.4381 2901.57 56.3027 2907.91 56.3027 2914.25 56.3027 2919.38 61.4381 2919.38 67.7719" fill="#FFFFFF" fill-rule="evenodd" transform="matrix(1 0 0 1.00334 -1205.38 1022)"/><path d="M2911.04 14.597C2911.04 22.6592 2904.51 29.1948 2896.44 29.1948 2888.37 29.1948 2881.84 22.6592 2881.84 14.597 2881.84 6.53553 2888.37 0 2896.44 0 2896.44 0 2896.46 0 2896.46 0 2904.51 0 2911.04 6.52237 2911.04 14.5676 2911.04 14.5776 2911.04 14.5877 2911.04 14.597" fill="#FFFFFF" fill-rule="evenodd" transform="matrix(1 0 0 1.00334 -1205.38 1022)"/></g></g></g></g><path d="M2985.06 1187.78C2963.17 1188.54 2946.33 1190.4 2934.52 1193.35 2922.72 1196.3 2914.16 1200.68 2908.83 1206.48 2906.16 1209.38 2904.17 1212.89 2902.83 1217.01L2900.9 1230.7 2903.21 1244.37C2904.79 1248.48 2907.16 1251.99 2910.33 1254.92 2916.66 1260.77 2925.86 1263.7 2937.95 1263.7 2946.9 1263.7 2954.82 1262.22 2961.72 1259.27 2968.62 1256.32 2976.4 1250.99 2985.06 1243.28ZM2599.55 1132.96C2590.6 1132.96 2582.87 1135.42 2576.35 1140.32 2569.83 1145.22 2564.74 1152.47 2561.08 1162.09 2559.25 1166.89 2557.87 1172.26 2556.96 1178.18L2555.61 1197.2 2556.94 1216.66C2557.84 1222.7 2559.2 1228.15 2561.01 1233.01 2564.62 1242.71 2569.69 1250.07 2576.21 1255.06 2582.73 1260.06 2590.51 1262.56 2599.55 1262.56 2608.59 1262.56 2616.39 1260.08 2622.96 1255.13 2629.53 1250.18 2634.64 1242.83 2638.31 1233.08 2640.14 1228.2 2641.51 1222.73 2642.43 1216.68L2643.77 1197.19 2642.43 1177.98C2641.51 1172.02 2640.14 1166.65 2638.31 1161.87 2634.64 1152.31 2629.55 1145.1 2623.03 1140.24 2616.51 1135.39 2608.69 1132.96 2599.55 1132.96ZM2757.13 1119.95C2765.6 1119.95 2773.12 1121.09 2779.69 1123.37L2779.69 1124.26 2779.69 1139.22 2779.69 1140.1 2779.26 1140.1C2770.5 1138.1 2762.7 1137.1 2755.85 1137.1 2746.61 1137.1 2738.12 1139.36 2730.36 1143.89 2722.61 1148.41 2714.73 1155.14 2706.74 1164.08L2706.74 1272.12 2706.74 1273 2692.18 1273 2692.18 1272.12 2692.18 1123.11 2692.18 1122.23 2706.74 1122.23 2706.74 1123.11 2706.74 1146.79C2715.3 1138.22 2724.01 1131.61 2732.86 1126.94 2741.71 1122.28 2749.8 1119.95 2757.13 1119.95ZM2599.83 1119.23C2617.82 1119.23 2632.1 1126.16 2642.66 1140 2653.23 1153.85 2658.51 1173 2658.51 1197.46L2658.46 1197.99 2658.51 1198.34C2658.51 1214.33 2656.13 1228.16 2651.37 1239.81 2646.61 1251.47 2639.76 1260.42 2630.81 1266.65 2621.87 1272.88 2611.54 1276 2599.83 1276 2581.75 1276 2567.41 1269.15 2556.79 1255.44 2546.18 1241.74 2540.88 1222.71 2540.88 1198.34L2540.92 1197.81 2540.88 1197.46C2540.88 1181.28 2543.26 1167.29 2548.02 1155.49 2552.77 1143.69 2559.65 1134.7 2568.64 1128.51 2577.64 1122.33 2588.03 1119.23 2599.83 1119.23ZM2240.29 1118.81C2247.43 1118.81 2255.4 1119.95 2264.2 1122.23 2273.01 1124.52 2280.26 1127.23 2285.97 1130.37L2285.97 1131.25 2285.97 1147.5 2285.97 1148.38 2284.69 1148.38C2278.22 1143.62 2270.58 1139.89 2261.78 1137.18 2252.97 1134.46 2244.91 1133.11 2237.58 1133.11 2227.4 1133.11 2218.98 1135.58 2212.31 1140.53L2202.44 1159.86 2204.21 1169.84C2205.47 1172.88 2207.36 1175.43 2209.89 1177.48 2214.93 1181.57 2225.97 1185.9 2243.01 1190.47 2256.61 1194.18 2266.66 1197.77 2273.13 1201.24 2279.6 1204.72 2284.24 1208.79 2287.05 1213.45 2289.85 1218.11 2291.26 1224.54 2291.26 1232.72L2291.16 1233.18 2291.26 1233.6C2291.26 1246.36 2286.55 1256.66 2277.12 1264.51 2267.7 1272.36 2255.28 1276.29 2239.86 1276.29 2230.06 1276.29 2220.74 1275.17 2211.89 1272.93 2203.03 1270.7 2195.28 1267.58 2188.62 1263.58L2188.62 1262.7 2188.62 1246.45 2188.62 1245.57 2189.47 1245.57C2196.13 1250.71 2203.82 1254.94 2212.53 1258.27 2221.24 1261.6 2230.21 1263.27 2239.44 1263.27 2251.71 1263.27 2261.16 1260.68 2267.77 1255.49 2271.08 1252.9 2273.56 1249.75 2275.21 1246.05L2277.6 1233.78 2274.63 1221.26C2272.58 1218.26 2269.01 1215.55 2263.92 1213.12 2258.83 1210.69 2246.43 1206.72 2226.73 1201.2 2213.31 1197.49 2203.63 1192.52 2197.68 1186.28 2191.73 1180.05 2188.76 1171.89 2188.76 1161.8L2188.84 1161.41 2188.76 1160.92C2188.76 1148.26 2193.4 1138.08 2202.68 1130.37 2211.96 1122.66 2224.5 1118.81 2240.29 1118.81ZM2939.38 1117.95C2960.12 1117.95 2975.38 1122.57 2985.13 1131.8 2994.89 1141.03 2999.76 1154.92 2999.76 1173.48L2999.76 1174.36 2999.76 1272.12 2999.76 1273 2985.06 1273 2985.06 1272.12 2985.06 1258.3C2977.64 1264.2 2971.62 1268.24 2967 1270.43 2962.38 1272.62 2957.22 1274.26 2951.51 1275.36 2945.8 1276.45 2939.19 1277 2931.67 1277 2918.54 1277 2907.59 1272.77 2898.84 1264.3 2890.08 1255.83 2885.7 1244.88 2885.7 1231.46L2885.77 1230.96 2885.7 1230.58C2885.7 1217.07 2888.96 1206.53 2895.48 1198.96 2902 1191.39 2912.42 1185.64 2926.74 1181.69 2941.07 1177.74 2960.46 1175.48 2984.92 1174.91L2984.92 1171.08C2984.92 1159.09 2981.06 1149.69 2973.35 1142.89 2965.64 1136.08 2955.08 1132.68 2941.66 1132.68 2935.48 1132.68 2929.62 1133.32 2924.1 1134.61 2918.58 1135.89 2910.78 1138.82 2900.69 1143.39L2899.83 1143.39 2899.83 1142.5 2899.83 1126.83 2899.83 1125.94C2913.44 1120.61 2926.62 1117.95 2939.38 1117.95ZM2063.3 1084.71 1984.3 1191.04 2063.3 1191.04ZM2425.27 1073.87 2425.27 1174.91 2441.97 1174.91C2461.38 1174.91 2476.44 1170.39 2487.15 1161.35 2492.5 1156.83 2496.52 1151.35 2499.2 1144.93L2503.13 1123.23 2499.48 1101.89C2492.02 1083.21 2473.37 1073.87 2443.54 1073.87ZM2807.97 1071.13 2822.53 1071.13 2822.53 1072.01 2822.53 1122.23 2873.06 1122.23 2873.06 1123.11 2873.06 1134.65 2873.06 1135.53 2822.53 1135.53 2822.53 1216.59C2822.53 1233.15 2824.38 1244.76 2828.09 1251.42 2831.81 1258.08 2838.66 1261.41 2848.65 1261.41 2857.5 1261.41 2865.83 1259.8 2873.63 1256.56L2874.06 1256.56 2874.06 1257.44 2874.06 1270.41 2874.06 1271.29C2871.49 1272.34 2867.52 1273.36 2862.14 1274.36 2856.76 1275.36 2852.08 1275.86 2848.08 1275.86 2833.23 1275.86 2822.84 1271.93 2816.89 1264.08 2810.94 1256.23 2807.97 1243.74 2807.97 1226.61L2807.97 1225.73 2807.97 1135.53 2790.26 1135.53 2790.26 1134.65 2790.26 1123.11 2790.26 1122.23 2807.97 1122.23 2807.97 1072.01ZM2410.28 1059.56 2449.53 1059.56C2470.47 1059.56 2487.2 1065.11 2499.71 1076.19 2512.23 1087.28 2518.49 1102.68 2518.49 1122.37L2518.4 1122.8 2518.49 1123.26C2518.49 1143.91 2511.47 1159.99 2497.43 1171.51 2483.39 1183.02 2464.05 1188.78 2439.4 1188.78L2425.27 1188.78 2425.27 1272.12 2425.27 1273 2410.28 1273 2410.28 1272.12 2410.28 1060.45ZM2066.16 1058.85 2077.72 1058.85 2077.72 1059.73 2077.72 1191.04 2105.98 1191.04 2105.98 1191.92 2105.98 1204.17 2105.98 1205.05 2077.72 1205.05 2077.72 1272.12 2077.72 1273 2063.3 1273 2063.3 1272.12 2063.3 1205.05 1971.8 1205.05 1971.8 1204.17 1971.8 1186.64 1971.8 1185.76ZM1903.65 1056.42C1913.55 1056.42 1923.62 1057.95 1933.85 1060.99 1944.08 1064.04 1953.1 1068.27 1960.9 1073.7L1960.9 1074.58 1960.9 1093.4 1960.9 1094.28 1960.61 1094.28C1952.33 1086.86 1943.41 1081.27 1933.85 1077.51 1924.28 1073.75 1913.36 1071.87 1901.08 1071.87 1881.1 1071.87 1865.3 1080.34 1853.69 1097.28 1847.88 1105.75 1843.53 1115.79 1840.63 1127.4L1836.31 1166.58 1838.31 1193.57C1839.66 1202.07 1841.7 1209.88 1844.41 1217.02 1849.84 1231.29 1857.59 1242.19 1867.68 1249.71 1877.77 1257.23 1889.62 1260.99 1903.23 1260.99 1915.22 1260.99 1925.66 1259.22 1934.56 1255.7 1943.46 1252.18 1951.91 1246.47 1959.9 1238.57L1960.9 1238.57 1960.9 1239.46 1960.9 1256.56 1960.9 1257.44C1954.33 1262.58 1945.89 1266.98 1935.56 1270.65 1925.23 1274.31 1914.6 1276.14 1903.65 1276.14 1877.96 1276.14 1857.59 1266.34 1842.56 1246.74 1827.52 1227.13 1820 1200.53 1820 1166.94L1820.04 1166.41 1820 1166.06C1820 1144.26 1823.43 1125.06 1830.28 1108.46 1837.13 1091.85 1846.91 1079.03 1859.61 1069.99 1872.32 1060.94 1887 1056.42 1903.65 1056.42ZM3043.44 1050 3058 1050 3058 1050.88 3058 1272.12 3058 1273 3043.44 1273 3043.44 1272.12 3043.44 1050.88ZM2146.82 1050 2167.09 1050 2166.71 1050.88 2167.09 1050.88 2132.97 1130.68 2121.55 1130.68 2121.83 1129.8 2121.55 1129.8Z" fill="#FFFFFF" fill-rule="evenodd"/><path d="M2091.28 1357.57 2052 1410.17 2091.28 1410.17ZM1927.25 1349.34 1915.35 1353.91C1912.41 1357.1 1910.24 1362.17 1908.84 1369.1 1907.44 1376.04 1906.74 1385.53 1906.74 1397.57 1906.74 1409.38 1907.43 1418.77 1908.8 1425.75 1910.18 1432.74 1912.34 1437.84 1915.28 1441.05L1927.25 1445.66 1939.15 1441.09C1942.09 1437.9 1944.26 1432.83 1945.66 1425.9 1947.06 1418.96 1947.76 1409.47 1947.76 1397.43 1947.76 1385.62 1947.07 1376.23 1945.7 1369.25 1944.32 1362.26 1942.16 1357.16 1939.22 1353.95ZM2092.72 1343.51 2093.81 1343.51 2098.58 1343.51 2099.67 1343.51 2099.67 1410.17 2112.91 1410.17 2114 1410.17 2114 1416.79 2112.91 1416.79 2099.67 1416.79 2099.67 1451.06 2098.58 1451.06 2092.37 1451.06 2091.28 1451.06 2091.28 1416.79 2045.99 1416.79 2044.9 1416.79 2044.9 1407.51ZM2001.07 1342 2001.59 1342.08 2002.16 1342C2011.32 1342 2018.39 1344.45 2023.36 1349.34 2028.33 1354.24 2030.81 1361.15 2030.81 1370.07 2030.81 1380.92 2026.96 1392.03 2019.27 1403.4 2011.58 1414.78 1998.3 1428.48 1979.44 1444.51L2034.06 1444.51 2035.15 1444.51 2035.15 1451.06 2034.06 1451.06 1972.71 1451.06 1971.62 1451.06 1971.62 1443.07C1986.67 1429.25 1997.37 1418.6 2003.71 1411.14 2010.05 1403.68 2014.62 1396.71 2017.42 1390.23 2020.22 1383.75 2021.62 1377.13 2021.62 1370.36 2021.62 1363.4 2019.91 1358.1 2016.51 1354.45 2014.81 1352.63 2012.72 1351.26 2010.25 1350.35L2002.21 1349.07 1989.82 1351.21C1985.31 1352.7 1980.6 1354.93 1975.68 1357.91L1975.32 1357.91 1975.32 1357.56 1974.59 1357.91 1974.23 1357.91 1974.23 1349.63C1982.91 1344.54 1991.85 1342 2001.07 1342ZM1926.7 1342 1927.25 1342.08 1927.8 1342C1934.84 1342 1940.45 1343.87 1944.62 1347.61 1948.79 1351.36 1951.86 1357.24 1953.84 1365.25 1955.82 1373.27 1956.81 1383.99 1956.81 1397.43 1956.81 1410.86 1955.82 1421.61 1953.84 1429.68 1951.86 1437.74 1948.78 1443.64 1944.58 1447.39 1940.39 1451.13 1934.79 1453 1927.8 1453L1927.25 1452.92 1926.7 1453C1919.66 1453 1914.05 1451.13 1909.88 1447.39 1905.71 1443.64 1902.64 1437.76 1900.66 1429.75 1898.68 1421.73 1897.69 1411.03 1897.69 1397.64 1897.69 1384.21 1898.68 1373.45 1900.66 1365.36 1902.64 1357.27 1905.71 1351.36 1909.88 1347.61 1914.05 1343.87 1919.66 1342 1926.7 1342ZM1849.45 1342 1849.97 1342.08 1850.54 1342C1859.7 1342 1866.77 1344.45 1871.74 1349.34 1876.71 1354.24 1879.19 1361.15 1879.19 1370.07 1879.19 1380.92 1875.34 1392.03 1867.65 1403.4 1859.96 1414.78 1846.68 1428.48 1827.82 1444.51L1882.44 1444.51 1883.53 1444.51 1883.53 1451.06 1882.44 1451.06 1821.09 1451.06 1820 1451.06 1820 1443.07C1835.05 1429.25 1845.75 1418.6 1852.09 1411.14 1858.43 1403.68 1863 1396.71 1865.8 1390.23 1868.6 1383.75 1869.99 1377.13 1869.99 1370.36 1869.99 1363.4 1868.29 1358.1 1864.89 1354.45 1863.19 1352.63 1861.1 1351.26 1858.63 1350.35L1850.59 1349.07 1838.2 1351.21C1833.69 1352.7 1828.98 1354.93 1824.06 1357.91L1823.7 1357.91 1823.7 1357.56 1822.97 1357.91 1822.6 1357.91 1822.6 1349.63C1831.29 1344.54 1840.23 1342 1849.45 1342Z" fill="#FFFFFF" fill-rule="evenodd"/></g></svg>